<svg width="120px" height="75px" viewBox="114 90 120 75" version="1.1" xmlns="http://www.w3.org/2000/svg" xmlns:xlink="http://www.w3.org/1999/xlink">
    <!-- Generator: Sketch 42 (36781) - http://www.bohemiancoding.com/sketch -->
    <desc>Created with Sketch.</desc>
    <defs>
        <polygon id="path-1" points="0.0144 35.4444087 0.0144 0.0690265487 43.6584 0.0690265487 43.6584 35.4444087"></polygon>
        <polygon id="path-3" points="0.0144 35.4444087 0.0144 0.0690265487 43.6584 0.0690265487 43.6584 35.4444087"></polygon>
        <polygon id="path-5" points="36.4164 36.92679 0.0036 36.92679 0.0036 0.232421561 36.4164 0.232421561 36.4164 36.92679"></polygon>
        <polygon id="path-7" points="36.4164 36.92679 0.0036 36.92679 0.0036 0.232421561 36.4164 0.232421561 36.4164 36.92679"></polygon>
    </defs>
    <g id="Logo" stroke="none" fill="none" transform="translate(114.000000, 90.000000)" stroke-width="1" fill-rule="evenodd">
        <g id="Group">
            <g>
                <polyline id="Shape" fill="#676968" fill-rule="nonzero" points="77.52096 69.8370072 86.57616 69.8370072 86.57616 35.4444087 77.52096 35.4444087"></polyline>
                <polygon id="Shape" fill="#D76713" fill-rule="nonzero" points="69.25488 35.4444087 99.3648 35.4444087 97.0464 26.7557522 66.93936 26.7557522"></polygon>
                <polyline id="Shape" fill="#676968" fill-rule="nonzero" points="21.6984 58.1744167 15.5784 35.4444087 6.4344 35.4444087 13.16688 60.4725664 21.69888 58.1744167"></polyline>
                <g id="Clipped">
                    <mask id="mask-2" fill="white">
                        <use xlink:href="#path-1"></use>
                    </mask>
                    <g id="a"></g>
                    <polyline id="Shape" fill="#D76713" fill-rule="nonzero" mask="url(#mask-2)" points="4.11912 26.7557522 6.4344 35.4444087 29.4744 35.4444087 27.15912 26.7557522 4.11912 26.7557522"></polyline>
                </g>
                <g id="Clipped">
                    <mask id="mask-4" fill="white">
                        <use xlink:href="#path-3"></use>
                    </mask>
                    <g id="a"></g>
                    <polyline id="Shape" fill="#676968" fill-rule="nonzero" mask="url(#mask-4)" points="10.5648 16.6218825 43.6584 7.70563154 41.62272 0.0692679002 0 11.2848753 4.11912 26.7555109 13.2624 26.7555109 10.5648 16.6218825"></polyline>
                </g>
                <path d="M20.5284,18.7457763 L23.5764,18.7457763 L23.5764,19.9308126 C24.1368,19.3409493 24.6336,18.9364441 25.0668,18.718745 C25.5096,18.4918745 26.03352,18.3779566 26.6388,18.3779566 C27.4428,18.3779566 28.2828,18.6410298 29.1588,19.1681416 L27.7632,21.9750603 C27.1848,21.5570394 26.6208,21.348029 26.06976,21.348029 C24.40776,21.348029 23.57664,22.6102977 23.57664,25.1355591 L23.57664,32.0164924 L20.52864,32.0164924 L20.52864,18.7457763" id="Shape" fill="#676968" fill-rule="nonzero"></path>
                <path d="M26.63856,17.8952534 C25.95984,17.8952534 25.35744,18.0279968 24.84888,18.2886565 C24.59856,18.414642 24.33528,18.5903459 24.05688,18.8181818 L24.05688,18.2630732 L20.04816,18.2630732 L20.04816,32.4989541 L24.05616,32.4989541 L24.05616,25.1353178 C24.05616,22.17321 25.20528,21.8307321 26.06976,21.8307321 C26.51496,21.8307321 26.99064,22.0112631 27.48288,22.3665326 L27.94032,22.6971842 L29.7864,18.983749 L29.4048,18.7539823 C28.45728,18.1843926 27.52656,17.8952534 26.63808,17.8952534 L26.63856,17.8952534 Z M26.63856,18.3779566 C27.44256,18.3779566 28.28256,18.6410298 29.15856,19.1681416 L27.7632,21.9750603 C27.1848,21.5570394 26.6208,21.348029 26.06976,21.348029 C24.40776,21.348029 23.57664,22.6102977 23.57664,25.1355591 L23.57664,32.0164924 L20.52864,32.0164924 L20.52864,18.7457763 L23.57664,18.7457763 L23.57664,19.9308126 C24.1368,19.3409493 24.6336,18.9364441 25.06704,18.718745 C25.5096,18.4918745 26.03352,18.3779566 26.63856,18.3779566 L26.63856,18.3779566 Z" id="Shape" fill="#EEF0E5" fill-rule="nonzero"></path>
                <path d="M33.20952,25.3399839 C33.20952,26.6119067 33.5484,27.6473049 34.22544,28.4461786 C34.92096,29.2547064 35.79744,29.6589702 36.85392,29.6589702 C37.98288,29.6589702 38.89512,29.2684634 39.59064,28.4872084 C40.28664,27.6786806 40.63464,26.6524537 40.63464,25.4080451 C40.63464,24.1638777 40.28664,23.1374095 39.59304,22.3288817 C38.89944,21.5389381 37.99464,21.1438455 36.88344,21.1438455 C35.83704,21.1438455 34.96104,21.5432824 34.25544,22.3426388 C33.55944,23.1511665 33.21384,24.150362 33.21384,25.3402253 L33.20952,25.3399839 Z M40.44432,18.7457763 L43.506,18.7457763 L43.506,32.016251 L40.44432,32.016251 L40.44432,30.626066 C39.18912,31.8069992 37.8384,32.3975865 36.39312,32.3975865 C34.56912,32.3975865 33.06048,31.7343524 31.86816,30.4083669 C30.68496,29.0551086 30.09336,27.3654063 30.09336,25.3399839 C30.09336,23.3507643 30.68376,21.6931617 31.86696,20.3671762 C33.05016,19.0409493 34.53096,18.3779566 36.30936,18.3779566 C37.84296,18.3779566 39.22056,19.0136766 40.43976,20.285358 L40.43976,18.745535 L40.44432,18.7457763 Z" id="Shape" fill="#676968" fill-rule="nonzero"></path>
                <path d="M36.85392,29.1762671 C35.93472,29.1762671 35.19408,28.8340306 34.58832,28.1304907 C33.99264,27.4274336 33.68952,26.4876106 33.68952,25.3399839 C33.68952,24.2599356 33.9924,23.3826227 34.61592,22.658568 C35.22672,21.9654063 35.96904,21.6263073 36.88104,21.6263073 C37.85784,21.6263073 38.62584,21.9608206 39.23304,22.6489139 C39.85224,23.369107 40.15704,24.27321 40.15704,25.4080451 C40.15704,26.5431215 39.85464,27.4474658 39.23064,28.1715205 C38.63064,28.8453741 37.85304,29.1762671 36.85704,29.1762671 L36.85392,29.1762671 Z M36.31224,17.8954948 C34.39944,17.8954948 32.78424,18.6183427 31.51224,20.0447305 C30.25464,21.4559131 29.61624,23.2378117 29.61624,25.3399839 C29.61624,27.4769107 30.25464,29.2892196 31.51224,30.7269509 C32.79864,32.157683 34.44024,32.8802896 36.39864,32.8802896 C37.65384,32.8802896 38.85144,32.4675784 39.96984,31.6518101 L39.96984,32.4989541 L43.99224,32.4989541 L43.99224,18.2630732 L39.96984,18.2630732 L39.96984,19.1990346 C38.86584,18.3330652 37.64184,17.8952534 36.31944,17.8952534 L36.31224,17.8954948 Z M36.85464,29.6589702 C37.98504,29.6589702 38.89704,29.2684634 39.59304,28.4872084 C40.28904,27.6786806 40.63704,26.6524537 40.63704,25.4080451 C40.63704,24.1638777 40.28904,23.1374095 39.59544,22.3288817 C38.90184,21.5389381 37.99704,21.1438455 36.88584,21.1438455 C35.83944,21.1438455 34.96344,21.5432824 34.25784,22.3426388 C33.56184,23.1511665 33.21624,24.150362 33.21624,25.3402253 C33.21624,26.6116653 33.55464,27.6475463 34.23384,28.44642 C34.92984,29.2549477 35.80584,29.6589702 36.86184,29.6589702 L36.85464,29.6589702 Z M36.31464,18.3781979 C37.85064,18.3781979 39.22824,19.0136766 40.44744,20.285358 L40.44744,18.745535 L43.50984,18.745535 L43.50984,32.0150442 L40.44744,32.0150442 L40.44744,30.6248592 C39.19224,31.8050684 37.84344,32.3963797 36.39624,32.3963797 C34.57224,32.3963797 33.06504,31.7326629 31.87224,30.4076428 C30.68904,29.0536605 30.09864,27.3641995 30.09864,25.3392599 C30.09864,23.3505229 30.69144,21.6924377 31.87464,20.365004 C33.05784,19.0375704 34.53864,18.3762671 36.31944,18.3762671 L36.31464,18.3781979 Z" id="Shape" fill="#EEF0E5" fill-rule="nonzero"></path>
                <path d="M47.35368,18.7457763 L50.40216,18.7457763 L50.40216,19.9718423 C50.98776,19.354465 51.48936,18.9364441 51.90456,18.718745 C52.34616,18.4918745 52.90296,18.3779566 53.57016,18.3779566 C55.06056,18.3779566 56.23896,19.0320193 57.10536,20.3396621 C58.06296,19.0315366 59.35896,18.3779566 60.99336,18.3779566 C63.96456,18.3779566 65.45016,20.1900241 65.45016,23.8139179 L65.45016,32.0150442 L62.38776,32.0150442 L62.38776,24.6441673 C62.38776,23.3722446 62.23416,22.4720032 61.92696,21.9458568 C61.61016,21.4100563 61.08936,21.1421561 60.36936,21.1421561 C59.52936,21.1421561 58.91736,21.4583266 58.53336,22.0954948 C58.14936,22.7302494 57.95736,23.75358 57.95736,25.1606597 L57.95736,32.0126307 L54.89736,32.0126307 L54.89736,24.6827836 C54.89736,22.3199517 54.21816,21.1397426 52.86456,21.1397426 C52.00536,21.1397426 51.38136,21.4607401 50.98776,22.1075623 C50.59416,22.751971 50.39736,23.7680611 50.39736,25.1582462 L50.39736,32.0102172 L47.34936,32.0102172 L47.34936,18.7457763" id="Shape" fill="#676968" fill-rule="nonzero"></path>
                <path d="M60.99696,17.8952534 C59.42856,17.8952534 58.12896,18.4537409 57.12624,19.5572003 C56.20944,18.4537409 55.01664,17.8952534 53.57232,17.8952534 C52.83024,17.8952534 52.1964,18.0279968 51.68784,18.2886565 C51.43824,18.4197104 51.17184,18.604827 50.88216,18.8485921 L50.88216,18.2630732 L46.872,18.2630732 L46.872,32.4989541 L50.88048,32.4989541 L50.88048,25.1633146 C50.88048,23.8696702 51.05472,22.9279163 51.39888,22.3636364 C51.70512,21.8604183 52.17168,21.6263073 52.866,21.6263073 C53.25,21.6263073 54.41808,21.6263073 54.41808,24.6861625 L54.41808,32.4987128 L58.44,32.4987128 L58.44,25.1633146 C58.44,23.8515688 58.6104,22.9042639 58.9464,22.3479485 C59.24328,21.8555913 59.6964,21.6263073 60.372,21.6263073 C61.09824,21.6263073 61.37328,21.9502011 61.5168,22.1934835 C61.6956,22.5004827 61.9104,23.1769912 61.9104,24.6451327 L61.9104,32.4987128 L65.9328,32.4987128 L65.9328,23.8141593 C65.9328,21.1139179 65.076,17.8952534 60.99504,17.8952534 L60.99696,17.8952534 Z M60.99696,18.3779566 C63.96816,18.3779566 65.45448,20.1900241 65.45448,23.8139179 L65.45448,32.0150442 L62.39208,32.0150442 L62.39208,24.6441673 C62.39208,23.3722446 62.23848,22.4720032 61.93176,21.9458568 C61.61496,21.4100563 61.09416,21.1421561 60.37176,21.1421561 C59.53176,21.1421561 58.91976,21.4583266 58.53576,22.0954948 C58.15176,22.7302494 57.95976,23.75358 57.95976,25.1606597 L57.95976,32.0126307 L54.89976,32.0126307 L54.89976,24.6827836 C54.89976,22.3199517 54.22056,21.1397426 52.86696,21.1397426 C52.00776,21.1397426 51.38376,21.4607401 50.99016,22.1075623 C50.59656,22.751971 50.39976,23.7680611 50.39976,25.1582462 L50.39976,32.0102172 L47.35176,32.0102172 L47.35176,18.7457763 L50.4,18.7457763 L50.4,19.9718423 C50.98704,19.354465 51.4884,18.9364441 51.90384,18.718745 C52.3464,18.4918745 52.90224,18.3779566 53.57016,18.3779566 C55.06056,18.3779566 56.23896,19.0320193 57.10536,20.3396621 C58.06296,19.0315366 59.35896,18.3779566 60.99336,18.3779566 L60.99696,18.3779566 Z" id="Shape" fill="#EEF0E5" fill-rule="nonzero"></path>
                <path d="M78.1896,23.5962188 C77.7648,21.9610619 76.74,21.1436042 75.114,21.1436042 C74.74392,21.1436042 74.39568,21.2005632 74.07096,21.3139984 C73.74456,21.4298471 73.44936,21.5915527 73.18296,21.8063556 C72.91656,22.0211585 72.68856,22.2769912 72.49896,22.5762671 C72.30936,22.875543 72.16296,23.2158488 72.06456,23.5995977 L78.18696,23.5995977 L78.1896,23.5962188 Z M81.3192,26.1028962 L71.86272,26.1028962 C71.94384,27.1928399 72.29568,28.0602574 72.9192,28.7051488 C73.54248,29.3411102 74.34192,29.6589702 75.3168,29.6589702 C76.07592,29.6589702 76.704,29.4772325 77.20032,29.1139984 C77.68824,28.7495575 78.24384,28.0786002 78.86688,27.0962993 L81.44112,28.5395817 C81.04368,29.2201931 80.62344,29.8042639 80.18112,30.2893805 C79.73832,30.7744972 79.26432,31.1751408 78.75864,31.4864843 C78.25464,31.8002414 77.70744,32.0295253 77.11944,32.1743363 C76.53384,32.3191472 75.89544,32.3915527 75.20904,32.3915527 C73.24104,32.3915527 71.65944,31.7543846 70.46904,30.4824618 C69.27624,29.200885 68.68104,27.5041834 68.68104,25.3875302 C68.68104,23.2877715 69.25944,21.59107 70.41624,20.2925986 C71.58264,19.0110217 73.12584,18.3714401 75.05064,18.3714401 C76.99224,18.3714401 78.52824,18.9941271 79.65864,20.2370877 C80.77944,21.4728077 81.33864,23.1839903 81.33864,25.3730491 L81.32664,26.0946903 L81.3192,26.1028962 Z" id="Shape" fill="#676968" fill-rule="nonzero"></path>
                <path d="M72.40488,26.5855994 L78.62256,26.5855994 L78.46248,26.8378117 C77.874,27.7641191 77.3532,28.3993564 76.91448,28.7261464 C76.50744,29.0239743 75.96888,29.1762671 75.31704,29.1762671 C74.46984,29.1762671 73.79544,28.9112631 73.26264,28.3662912 C72.81864,27.9077233 72.53544,27.3212389 72.40584,26.5875302 L72.40488,26.5855994 Z M72.74928,23.1135157 C72.79656,23.0152856 72.84816,22.9221239 72.90432,22.8335479 C73.06464,22.5801287 73.25904,22.3609815 73.48272,22.1818986 C73.7052,22.0032985 73.95648,21.865004 74.2284,21.7699115 C74.50152,21.6745776 74.7996,21.6263073 75.114,21.6263073 C76.30776,21.6263073 77.08536,22.1022526 77.5212,23.1135157 L72.7488,23.1135157 L72.74928,23.1135157 Z M75.04608,17.8954948 C72.9912,17.8954948 71.31312,18.5944489 70.05888,19.9730491 C68.82336,21.3613033 68.19888,23.1839903 68.19888,25.3945294 C68.19888,27.6277554 68.84448,29.4530973 70.11648,30.8201126 C71.39856,32.1876106 73.11168,32.8802896 75.2088,32.8802896 C75.93024,32.8802896 76.6116,32.8023331 77.2344,32.6481094 C77.86608,32.4917136 78.46416,32.240708 79.0104,31.9023331 C79.5516,31.5668544 80.06448,31.1348351 80.53488,30.6183427 C80.99808,30.1095736 81.44256,29.4931617 81.85488,28.7860016 L82.10352,28.3607401 L78.9396,26.5855994 L81.79008,26.5855994 L81.8124,25.3899437 C81.8124,23.0777957 81.2052,21.2386967 80.0076,19.9185036 C78.7884,18.5741754 77.11968,17.893564 75.04632,17.893564 L75.04608,17.8954948 Z M72.06528,23.5962188 L78.18936,23.5962188 C77.76456,21.9610619 76.73976,21.1436042 75.11256,21.1436042 C74.74296,21.1436042 74.39256,21.2005632 74.06856,21.3139984 C73.74216,21.4298471 73.44696,21.5915527 73.18056,21.8063556 C72.91416,22.0211585 72.68616,22.2769912 72.49656,22.5762671 C72.30696,22.875543 72.16296,23.2158488 72.06216,23.5995977 L72.06528,23.5962188 Z M75.04608,18.3781979 C76.98816,18.3781979 78.52368,19.0001609 79.65264,20.2445696 C80.77248,21.4798069 81.33264,23.1919549 81.33264,25.3810137 L81.31896,26.1026549 L71.86056,26.1026549 C71.93976,27.1928399 72.29256,28.0604988 72.91656,28.7051488 C73.53816,29.3411102 74.33736,29.6589702 75.31416,29.6589702 C76.07256,29.6589702 76.70136,29.4772325 77.19576,29.1139984 C77.68296,28.7495575 78.23976,28.0786002 78.86136,27.0962993 L81.43416,28.5395817 C81.03576,29.2201931 80.61576,29.8042639 80.17416,30.2893805 C79.73016,30.7744972 79.25736,31.1751408 78.75096,31.4864843 C78.24456,31.8002414 77.69736,32.0295253 77.11176,32.1743363 C76.52376,32.3191472 75.88776,32.3915527 75.20136,32.3915527 C73.23096,32.3915527 71.65176,31.7543846 70.45896,30.4824618 C69.26616,29.200885 68.66856,27.5041834 68.66856,25.3875302 C68.66856,23.2877715 69.24696,21.59107 70.40376,20.2925986 C71.57016,19.0110217 73.11336,18.3714401 75.03816,18.3714401 L75.04608,18.3781979 Z" id="Shape" fill="#EEF0E5" fill-rule="nonzero"></path>
                <polyline id="Shape" fill="#676968" fill-rule="nonzero" points="99.93072 37.5663717 90.78672 37.5663717 99.39744 69.8370072 108.5424 69.8370072 99.93072 37.5663717"></polyline>
                <polyline id="Shape" fill="#676968" fill-rule="nonzero" points="110.76864 26.7557522 99.29184 69.8370072 108.43584 69.8370072 119.91264 26.7557522 110.76864 26.7557522"></polyline>
                <g transform="translate(33.360000, 37.409493)" id="Clipped">
                    <g>
                        <mask id="mask-6" fill="white">
                            <use xlink:href="#path-5"></use>
                        </mask>
                        <g id="c"></g>
                        <path d="M3.5184,13.8714401 C3.672,14.1851971 3.60672,14.5443282 3.3264,14.6816573 C3.012,14.8361223 2.7192,14.6961384 2.53488,14.3654867 C1.85808,13.2721641 1.25424,12.2440064 0.82296,11.4403057 C0.39096,10.6341915 0.12936,9.87152051 0.03816,9.14987932 C-0.05544,8.42823813 0.03816,7.68004827 0.31416,6.90772325 C0.59016,6.13298471 1.11816,5.23032985 1.89816,4.19975865 C2.18376,3.80876911 2.59896,3.37433628 3.14376,2.89887369 C3.68856,2.42582462 4.28376,1.99139179 4.92936,1.60040225 C5.57736,1.2069992 6.23976,0.876347546 6.91656,0.608447305 C7.5936,0.337892196 8.2224,0.214802896 8.808,0.236524537 C9.39264,0.256798069 9.9,0.458567981 10.33104,0.839903459 C10.76304,1.22123894 11.03904,1.84513274 11.16384,2.71158488 C11.32944,3.88769107 11.33424,5.038214 11.18064,6.16242961 C11.02704,7.28712792 10.78464,8.3152856 10.45824,9.24207562 L10.64304,9.05623492 C10.93032,8.74730491 11.21664,8.4383749 11.50464,8.12944489 C11.79264,7.82003218 12.09984,7.55213194 12.42864,7.32477876 C14.02944,6.16870475 15.23424,5.81874497 16.04544,6.27248592 C16.8552,6.72622687 17.25024,7.92333065 17.2296,9.86138375 C17.20944,11.1405471 17.02992,12.441432 16.69152,13.7616251 C16.35312,15.0818182 16.0404,16.3609815 15.75312,17.599115 L15.63072,18.0335479 C15.73296,17.8887369 15.83472,17.7511665 15.93792,17.6160097 C16.0404,17.4832663 16.14312,17.3529364 16.24512,17.2298471 C16.30752,17.1477876 16.38912,17.0391794 16.49232,16.906436 C16.59456,16.7736927 16.81008,16.4888978 17.1384,16.0568785 C17.46624,15.6224457 17.9328,14.982864 18.53856,14.1381335 C19.14336,13.2909895 19.54488,12.7141593 20.63976,11.2322607 C21.05016,10.6747385 21.51096,10.4647627 21.78456,10.5781979 C21.96456,10.6530169 22.14216,10.7833467 22.30776,11.0102172 C22.44936,11.2974256 22.53336,11.6329043 22.55256,12.0142397 C22.57176,12.3955752 22.55736,12.7817377 22.50696,13.1727273 C22.45416,13.5637168 21.59736,19.8557522 21.53736,20.7849558 C21.47496,21.7141593 21.43416,22.5999195 21.44376,23.5363636 C21.46056,25.2716814 21.71256,25.9045052 22.85976,26.8042639 C22.97016,26.8911504 22.90056,27.0673371 22.85976,27.1911504 C22.81656,27.3142397 22.84776,27.8331456 22.71096,27.7670153 C22.06776,27.4590507 21.00456,26.7593725 20.60136,25.7855189 C20.19576,24.8056315 20.21016,24.5208367 20.11896,23.5706356 C20.04696,22.8304103 20.07096,22.0489139 20.10216,21.2343524 C20.13336,20.4193081 20.17416,19.6245374 20.22456,18.8510056 C20.27496,18.0762671 20.33256,17.3647627 20.39256,16.7150442 C20.45256,16.0646018 20.50536,15.5348351 20.54616,15.1221239 L20.66856,13.6981496 C20.35896,14.1736122 19.98936,14.7246179 19.55976,15.3538214 C19.12776,15.983749 18.67656,16.6233307 18.20616,17.2725664 C17.73336,17.9225261 17.26536,18.5570394 16.80456,19.1768302 C16.34136,19.7946903 15.91176,20.3208367 15.51096,20.7552695 C15.11016,21.1897023 14.78856,21.5517297 14.46696,21.7158488 C13.92216,21.9958166 13.32696,21.5927595 13.15896,21.066613 C13.01976,20.6249397 13.08696,19.9925986 13.19016,19.208206 C13.29096,18.4238134 13.43496,17.593564 13.61976,16.7150442 C13.80456,15.8365245 13.99896,14.991794 14.20536,14.1760257 C14.40936,13.3609815 14.57496,12.6953339 14.69736,12.1800483 C14.81976,11.5607401 14.99016,10.8405471 15.09096,10.2154465 C15.19416,9.59034594 15.36216,8.6925181 14.85096,8.46564763 C14.66376,8.38213998 14.36856,8.62011263 14.02056,8.93000805 C13.67016,9.23893805 13.31736,9.59613837 12.95976,9.99847144 C12.59976,10.399115 12.26616,10.8021722 11.95896,11.2052293 C11.64936,11.6065969 11.43576,11.8906677 11.31096,12.0547868 C10.69416,12.9212389 10.13976,13.8359614 9.64776,14.7941271 C9.15576,15.7547064 8.65176,16.7128721 8.14056,17.6734513 C7.62696,18.6316171 7.06776,19.55358 6.52296,20.4731295 C4.63248,23.6710378 3.56856,23.3396621 3.12456,23.0290426 C2.72136,22.7459372 2.03736,22.0419147 3.62928,19.0660499 C3.89568,18.5664521 4.15248,18.0644409 4.42896,17.5800483 C4.70736,17.0949316 4.93776,16.6556718 5.12256,16.2646822 C5.57376,15.3354787 5.95776,14.5559131 6.27696,13.928399 C6.59376,13.2984714 6.88656,12.6999195 7.15296,12.1327434 C7.41936,11.5655672 7.67136,10.9525342 7.90728,10.2912309 C8.14248,9.6304103 8.39448,8.80450523 8.66088,7.8149638 C8.82408,7.19469027 8.96328,6.56717619 9.07608,5.92614642 C9.18888,5.28656476 9.24024,4.68801287 9.22968,4.13049075 C9.22008,3.57296862 9.14808,3.09823009 9.01464,2.70651649 C8.88024,2.31552695 8.64984,2.05245374 8.32104,1.91729686 C7.99224,1.78286404 7.56192,1.82389381 7.02864,2.04038616 C6.49584,2.25760257 5.82864,2.69444891 5.02944,3.35575221 C4.68048,3.64537409 4.35264,3.94947707 4.04544,4.26806114 C3.73728,4.58905873 3.4392,4.92453741 3.15264,5.27449718 C2.49504,6.12091714 2.064,6.89879324 1.85904,7.61078037 C1.65336,8.3227675 1.60704,9.01472245 1.71984,9.68399035 C1.83264,10.3549477 2.06784,11.0403862 2.42784,11.7427192 C2.78544,12.4450523 3.05664,12.9518906 3.50784,13.8678198" id="Shape" fill="#D76713" fill-rule="nonzero" mask="url(#mask-6)"></path>
                    </g>
                    <g>
                        <mask id="mask-8" fill="white">
                            <use xlink:href="#path-7"></use>
                        </mask>
                        <g id="c"></g>
                        <path d="M28.68912,24.2654867 C28.69464,23.5740145 28.78752,22.8294449 28.76712,22.1483508 C28.13112,22.6641191 27.4428,23.2696702 26.88888,23.8474658 C26.33496,24.4247788 25.82208,25.0438455 25.35048,25.7041834 C24.69336,26.6744167 24.20616,27.6084473 23.88888,28.5062751 C23.57016,29.404103 23.38056,30.4298471 23.31936,31.5859212 C23.31936,31.8345133 23.35488,32.1482703 23.42688,32.5296058 C23.4984,32.9109413 23.61648,33.2729686 23.78088,33.6132743 C23.94456,33.95358 24.15528,34.2287208 24.4116,34.4338697 C24.66792,34.641432 24.98088,34.6921158 25.35,34.5883347 C25.63704,34.5062751 25.8936,34.337329 26.11968,34.0790829 C26.34528,33.8208367 26.53488,33.5384553 26.68896,33.2295253 C26.84256,32.9205953 27.00576,32.6261464 27.12648,32.2979083 C28.05648,29.787852 28.6716,26.483749 28.68888,24.2705551 L28.68912,24.2654867 Z M24.11952,13.9131939 C24.13944,13.7280772 24.21168,13.5832663 24.3348,13.4799678 C24.45792,13.3769107 24.5856,13.3255028 24.71928,13.3255028 C24.85248,13.3255028 24.9756,13.3670153 25.08888,13.4490748 C25.2012,13.5316171 25.27848,13.6658085 25.31928,13.8511665 C25.33968,14.3884151 25.31928,14.9191472 25.2576,15.445535 C25.1964,15.9716814 25.1448,16.5026549 25.104,17.0389381 C25.06272,17.5761866 25.03728,18.1122285 25.0272,18.648029 C25.0164,19.1847949 25.06272,19.7109413 25.16544,20.2264682 C25.80144,19.7109413 26.2992,19.1589702 26.65824,18.5707965 C27.01656,17.9833467 27.31968,17.3640386 27.56592,16.7140788 C27.81216,16.0638777 28.02744,15.3943685 28.212,14.7024135 C28.3968,14.0116653 28.63248,13.315366 28.92,12.6139984 C29.06328,12.3866452 29.238,12.2218021 29.4432,12.118745 C29.64792,12.0149638 29.84784,11.973934 30.0432,11.9946903 C30.23808,12.0152051 30.41712,12.0984714 30.58176,12.242317 C30.74568,12.3866452 30.85872,12.5932422 30.92016,12.8613837 C30.98208,13.7278359 30.98208,14.594288 30.92016,15.4583266 C30.85872,16.3247788 30.83784,17.200885 30.85872,18.0890587 L30.85872,18.830008 C31.39224,18.521078 31.94112,18.2362832 32.50512,17.978037 C33.06912,17.7197908 33.64872,17.5074014 34.24416,17.3432824 C34.46928,17.280531 34.7256,17.2395012 35.01336,17.2201931 C35.29896,17.1984714 35.55576,17.2201931 35.78136,17.280531 C36.00696,17.3432824 36.18216,17.4615447 36.30456,17.6353178 C36.42696,17.8090909 36.44856,18.0625101 36.36456,18.3931617 C36.23976,18.7238134 36.04536,18.8831054 35.77896,18.8734513 C35.51256,18.8637973 35.32776,18.7431215 35.22456,18.516251 L35.00856,18.516251 C34.26936,18.7020917 33.55656,18.979646 32.86776,19.3513274 C32.17896,19.7230088 31.52856,20.1236525 30.91176,20.5580853 C30.95256,22.51786 30.91656,24.441432 30.80376,26.3288013 C30.69096,28.2185841 30.32616,30.1397426 29.71176,32.1019308 C29.50536,32.7197908 29.23896,33.3545455 28.91016,34.0061947 C28.58136,34.6554304 28.18056,35.2226066 27.71016,35.7077233 C27.23736,36.1904264 26.69496,36.5427997 26.07816,36.7600161 C25.46136,36.974819 24.77496,36.969992 24.01656,36.7431215 C23.52456,36.5983105 23.08776,36.3352373 22.70856,35.9539019 C22.32696,35.5701529 22.01496,35.1381335 21.77016,34.6530169 C21.52296,34.1679002 21.34296,33.6562349 21.23016,33.1204344 C21.11736,32.5822204 21.08136,32.0777957 21.12216,31.6023331 C21.22296,30.28214 21.47496,29.0681416 21.87576,27.9651649 C22.27656,26.8597747 22.80456,25.8436846 23.45976,24.9168946 C24.11736,23.9876911 24.88536,23.130893 25.76856,22.3465004 C26.65176,21.5621078 27.61416,20.8308126 28.66056,20.1502011 C28.66056,19.9233307 28.71096,19.4526951 28.71096,19.213757 C28.71096,18.9772325 28.73256,18.4679807 28.75416,18.2411102 C28.73256,18.2411102 28.51656,18.709815 28.51656,18.7310539 C28.33176,19.0617056 28.31976,19.1051488 27.94536,19.6433628 C27.47736,20.3179405 26.11416,21.6646822 25.31976,21.8814159 C25.08984,21.9441673 24.85728,21.8765889 24.64296,21.8041834 C24.42696,21.731778 24.23256,21.6086887 24.05736,21.432502 C23.88312,21.2587289 23.76528,21.0463395 23.70456,20.7977474 C23.56128,20.2209171 23.50056,19.6440869 23.52048,19.0648431 C23.53968,18.4880129 23.59104,17.9160097 23.67408,17.3478681 C23.75568,16.7806919 23.8428,16.2086887 23.93568,15.6306516 C24.02736,15.0538214 24.08448,14.4745776 24.10464,13.8977474 L24.11952,13.9131939 Z" id="Shape" fill="#D76713" fill-rule="nonzero" mask="url(#mask-8)"></path>
                    </g>
                </g>
            </g>
        </g>
    </g>
</svg>
